# xmcd
#
# Track frame offsets: 
#        150
#        16611
#        30215
#        52332
#        80871
#        96171
#        121777
#        143493
#        161160
#        178135
#
# Disc length: 2559 seconds
#
# Revision: 0
# Processed by: cddbd v1.5.2PL0 Copyright (c) Steve Scherf et al.
# Submitted via: ExactAudioCopy v1.0b1
#
DISCID=7a09fd0a
DTITLE=Charlie Barker - Ghosts and Heroes
DYEAR=2011
DGENRE=Country
TTITLE0=I Take My Chances
TTITLE1=Gravity
TTITLE2=It's a Hard Life (Wherever You Go)
TTITLE3=The Road to Ensenada
TTITLE4=Silver Thunderbird
TTITLE5=Beautiful Fool
TTITLE6=Wade in the Water
TTITLE7=Underneath the Stars
TTITLE8=Landslide
TTITLE9=Wall of Death
EXTD=
EXTT0=
EXTT1=
EXTT2=
EXTT3=
EXTT4=
EXTT5=
EXTT6=
EXTT7=
EXTT8=
EXTT9=
PLAYORDER=
